<?xml version="1.0" encoding="UTF-8" standalone="no"?>
<!DOCTYPE svg PUBLIC "-//W3C//DTD SVG 1.1//EN" "http://www.w3.org/Graphics/SVG/1.1/DTD/svg11.dtd">
<svg width="100%" height="100%" viewBox="0 0 1024 1024" version="1.1" xmlns="http://www.w3.org/2000/svg" xmlns:xlink="http://www.w3.org/1999/xlink" xml:space="preserve" xmlns:serif="http://www.serif.com/" style="fill-rule:evenodd;clip-rule:evenodd;stroke-linecap:round;stroke-linejoin:round;stroke-miterlimit:1.5;">
    <g transform="matrix(7.46289,0,0,7.46289,512,388.425)">
        <g transform="matrix(1,0,0,1,-50,-50)">
            <clipPath id="_clip1">
                <rect x="0" y="0" width="100" height="100"/>
            </clipPath>
            <g clip-path="url(#_clip1)">
                <g>
                    <path d="M96.461,10.796L75.857,0.876C73.472,-0.273 70.622,0.212 68.75,2.083L1.299,63.583C-0.516,65.237 -0.514,68.094 1.303,69.745L6.813,74.754C8.298,76.104 10.535,76.204 12.134,74.991L93.361,13.37C96.086,11.303 100,13.246 100,16.667L100,16.427C100,14.027 98.625,11.838 96.461,10.796Z" style="fill:rgb(0,101,169);fill-rule:nonzero;"/>
                    <g>
                        <path d="M96.461,89.204L75.857,99.125C73.472,100.273 70.622,99.788 68.75,97.917L1.299,36.417C-0.516,34.763 -0.514,31.906 1.303,30.255L6.813,25.246C8.298,23.896 10.535,23.796 12.134,25.01L93.361,86.63C96.086,88.697 100,86.754 100,83.333L100,83.573C100,85.974 98.625,88.162 96.461,89.204Z" style="fill:rgb(0,122,204);fill-rule:nonzero;"/>
                    </g>
                    <g>
                        <path d="M75.858,99.126C73.472,100.274 70.622,99.789 68.75,97.917C71.056,100.223 75,98.59 75,95.328L75,4.672C75,1.41 71.056,-0.223 68.75,2.083C70.622,0.211 73.472,-0.274 75.858,0.874L96.459,10.781C98.623,11.822 100,14.011 100,16.413L100,83.587C100,85.989 98.623,88.179 96.459,89.22L75.858,99.126Z" style="fill:rgb(31,156,240);fill-rule:nonzero;"/>
                    </g>
                    <g opacity="0.25">
                        <path d="M70.851,99.317C72.426,99.931 74.222,99.891 75.812,99.126L96.4,89.22C98.563,88.179 99.939,85.989 99.939,83.587L99.939,16.413C99.939,14.011 98.564,11.822 96.4,10.781L75.812,0.874C73.726,-0.13 71.284,0.116 69.453,1.447C69.191,1.637 68.942,1.849 68.708,2.083L29.294,38.041L12.126,25.01C10.528,23.796 8.293,23.896 6.809,25.246L1.302,30.255C-0.513,31.906 -0.515,34.763 1.298,36.417L16.186,50L1.298,63.583C-0.515,65.237 -0.513,68.094 1.302,69.745L6.809,74.754C8.293,76.104 10.528,76.204 12.126,74.991L29.294,61.959L68.708,97.917C69.332,98.54 70.064,99.01 70.851,99.317ZM74.954,27.299L45.048,50L74.954,72.701L74.954,27.299Z" style="fill:url(#_Linear2);"/>
                    </g>
                </g>
            </g>
        </g>
    </g>
    <g transform="matrix(1.93675,0,0,1.93675,-479.304,-408.694)">
        <g transform="matrix(1.02714,0,0,1.15013,95.7039,-213.582)">
            <path d="M567.123,670.204C567.123,658.037 556.063,648.159 542.439,648.159L267.501,648.159C253.878,648.159 242.817,658.037 242.817,670.204L242.817,792.065C242.817,804.232 253.878,814.109 267.501,814.109L542.439,814.109C556.063,814.109 567.123,804.232 567.123,792.065L567.123,670.204Z" style="fill:white;stroke:black;stroke-width:11.36px;"/>
        </g>
        <rect x="381.185" y="567.942" width="23.62" height="23.62"/>
        <g transform="matrix(1,0,0,1,0,47.45)">
            <rect x="381.185" y="567.942" width="23.62" height="23.62"/>
        </g>
        <g transform="matrix(2.01425,0,0,1,-386.618,95.3762)">
            <rect x="381.185" y="567.942" width="23.62" height="23.62"/>
        </g>
        <g transform="matrix(1,0,0,1,47.5732,0)">
            <rect x="381.185" y="567.942" width="23.62" height="23.62"/>
        </g>
        <g transform="matrix(1,0,0,1,47.5732,47.45)">
            <rect x="381.185" y="567.942" width="23.62" height="23.62"/>
        </g>
        <g transform="matrix(1,0,0,1,95.1464,0)">
            <rect x="381.185" y="567.942" width="23.62" height="23.62"/>
        </g>
        <g transform="matrix(1,0,0,1,95.1464,47.45)">
            <rect x="381.185" y="567.942" width="23.62" height="23.62"/>
        </g>
        <g transform="matrix(1,0,0,1,142.72,0)">
            <rect x="381.185" y="567.942" width="23.62" height="23.62"/>
        </g>
        <g transform="matrix(1,0,0,1,142.72,47.45)">
            <rect x="381.185" y="567.942" width="23.62" height="23.62"/>
        </g>
        <g transform="matrix(5.02417,0,0,1,-1462.45,95.3762)">
            <rect x="381.185" y="567.942" width="23.62" height="23.62"/>
        </g>
        <g transform="matrix(1,0,0,1,190.293,0)">
            <rect x="381.185" y="567.942" width="23.62" height="23.62"/>
        </g>
        <g transform="matrix(1,0,0,1,190.293,47.45)">
            <rect x="381.185" y="567.942" width="23.62" height="23.62"/>
        </g>
        <g transform="matrix(1,0,0,1,237.866,0)">
            <rect x="381.185" y="567.942" width="23.62" height="23.62"/>
        </g>
        <g transform="matrix(1,0,0,1,237.866,47.45)">
            <rect x="381.185" y="567.942" width="23.62" height="23.62"/>
        </g>
        <g transform="matrix(1.99839,0,0,1,-166.288,95.3762)">
            <rect x="381.185" y="567.942" width="23.62" height="23.62"/>
        </g>
    </g>
    <defs>
        <linearGradient id="_Linear2" x1="0" y1="0" x2="1" y2="0" gradientUnits="userSpaceOnUse" gradientTransform="matrix(6.09167e-15,99.4845,-99.4845,6.09167e-15,49.9392,0.257812)"><stop offset="0" style="stop-color:white;stop-opacity:1"/><stop offset="1" style="stop-color:white;stop-opacity:0"/></linearGradient>
    </defs>
</svg>
